<?xml version="1.0" encoding="utf-8"?>
<!-- Generator: Adobe Illustrator 22.0.0, SVG Export Plug-In . SVG Version: 6.00 Build 0)  -->
<svg version="1.1" id="Layer_1" xmlns="http://www.w3.org/2000/svg" xmlns:xlink="http://www.w3.org/1999/xlink" x="0px" y="0px"
	 viewBox="0 0 720 720" style="enable-background:new 0 0 720 720;" xml:space="preserve">
<style type="text/css">
	.st0{fill:#FFFFFF;stroke:#000000;stroke-miterlimit:10;}
</style>
<g>
	<path class="st0" d="M129.4,380.1c0.4,1.7,0.8,3.4,1.3,5C130.2,383.5,129.8,381.8,129.4,380.1z"/>
	<path class="st0" d="M129.4,345.9c0.4-1.7,0.8-3.4,1.3-5C130.2,342.5,129.8,344.2,129.4,345.9z"/>
	<path class="st0" d="M289.5,310.3c-6.3-3.1-15.8-4.6-28.4-4.6h-56L177,406.3h50c14.5,0,27.1-2.3,37.9-6.8
		c12.5-5.3,20-12.6,22.7-22.2c2.3-8.2-0.5-14.5-8.4-18.8c-5.6-3-13.6-4.9-23.8-5.6l0.4-1.3c10.4-0.9,19.4-3.4,26.8-7.2
		c8.4-4.3,13.6-9.8,15.4-16.4C300.3,320,297.4,314,289.5,310.3z M253.7,378.5c-1.7,5.9-5.6,10.6-11.9,14.1
		c-6.2,3.5-12.6,5.2-19.1,5.2h-10.8l11.2-40.1c12.3,0,20.9,1.4,25.6,4.4C254.2,365.3,255.8,370.8,253.7,378.5z M265,330.2
		c-0.9,3-2.4,5.9-4.7,8.5c-2.2,2.7-5.2,4.9-8.9,6.8c-2.8,1.4-5.7,2.4-8.7,2.9c-2.9,0.5-6.5,0.7-10.5,0.7h-6.7l9.7-34.7
		c4-0.4,7.8-0.6,11.2-0.6c7.3,0,12.6,1.5,15.9,4.3C265.5,321,266.5,325,265,330.2z"/>
	<path class="st0" d="M362.3,306.3c6.3-0.4,9.8-0.6,10.4-0.6L344.5,407c-2.5,0-4.5-0.1-6-0.1c-6.1-0.4-9.5-0.6-10-0.6
		c-2.5,0-5.7,0.1-9.6,0.4c-4.1,0.2-6.4,0.3-7,0.3l28.3-101.4c2.5,0,5.6,0.1,9.4,0.4c3.8,0.2,6,0.4,6.6,0.4
		C358.7,306.4,360.7,306.4,362.3,306.3z"/>
	<path class="st0" d="M545.1,320.7c-10.9-11.8-30.3-17.7-58.4-17.7c-26.5,0-49,5.2-67.5,15.5c-17.7,9.8-28.6,22.3-32.9,37.6
		c-4.6,16.6-1,29.6,11,38.8c12,9.3,30.2,13.9,54.6,13.9c25.9,0,48.2-5.3,67.1-15.8c17.9-10,29-22.5,33.2-37.5
		C556,341.8,553.6,330.2,545.1,320.7z M516.9,352.7c-3.7,13.3-10.7,24.2-20.9,32.9c-11.4,9.5-24.9,14.3-40.7,14.3
		c-15.2,0-25.6-4.1-31.4-12.5c-5-7.2-5.9-16.2-2.9-27c4.6-16.2,12.3-28.4,23.1-36.7c10.3-7.9,23.2-11.8,38.7-11.8
		c15.2,0,25.6,4.4,31.4,13.2C519,332.6,519.9,341.8,516.9,352.7z"/>
	<path class="st0" d="M597.3,385.2c0.5-1.7,0.9-3.3,1.3-5C598.2,381.8,597.8,383.5,597.3,385.2z"/>
	<path class="st0" d="M598.6,345.9c-0.4-1.7-0.8-3.4-1.3-5C597.8,342.5,598.2,344.2,598.6,345.9z"/>
	<path class="st0" d="M129.4,380.1c0.4,1.7,0.8,3.4,1.3,5C130.2,383.5,129.8,381.8,129.4,380.1z"/>
	<path class="st0" d="M129.4,345.9c0.4-1.7,0.8-3.4,1.3-5C130.2,342.5,129.8,344.2,129.4,345.9z"/>
	<path class="st0" d="M289.5,310.3c-6.3-3.1-15.8-4.6-28.4-4.6h-56L177,406.3h50c14.5,0,27.1-2.3,37.9-6.8
		c12.5-5.3,20-12.6,22.7-22.2c2.3-8.2-0.5-14.5-8.4-18.8c-5.6-3-13.6-4.9-23.8-5.6l0.4-1.3c10.4-0.9,19.4-3.4,26.8-7.2
		c8.4-4.3,13.6-9.8,15.4-16.4C300.3,320,297.4,314,289.5,310.3z M253.7,378.5c-1.7,5.9-5.6,10.6-11.9,14.1
		c-6.2,3.5-12.6,5.2-19.1,5.2h-10.8l11.2-40.1c12.3,0,20.9,1.4,25.6,4.4C254.2,365.3,255.8,370.8,253.7,378.5z M265,330.2
		c-0.9,3-2.4,5.9-4.7,8.5c-2.2,2.7-5.2,4.9-8.9,6.8c-2.8,1.4-5.7,2.4-8.7,2.9c-2.9,0.5-6.5,0.7-10.5,0.7h-6.7l9.7-34.7
		c4-0.4,7.8-0.6,11.2-0.6c7.3,0,12.6,1.5,15.9,4.3C265.5,321,266.5,325,265,330.2z"/>
	<path class="st0" d="M362.3,306.3c6.3-0.4,9.8-0.6,10.4-0.6L344.5,407c-2.5,0-4.5-0.1-6-0.1c-6.1-0.4-9.5-0.6-10-0.6
		c-2.5,0-5.7,0.1-9.6,0.4c-4.1,0.2-6.4,0.3-7,0.3l28.3-101.4c2.5,0,5.6,0.1,9.4,0.4c3.8,0.2,6,0.4,6.6,0.4
		C358.7,306.4,360.7,306.4,362.3,306.3z"/>
	<path class="st0" d="M545.1,320.7c-10.9-11.8-30.3-17.7-58.4-17.7c-26.5,0-49,5.2-67.5,15.5c-17.7,9.8-28.6,22.3-32.9,37.6
		c-4.6,16.6-1,29.6,11,38.8c12,9.3,30.2,13.9,54.6,13.9c25.9,0,48.2-5.3,67.1-15.8c17.9-10,29-22.5,33.2-37.5
		C556,341.8,553.6,330.2,545.1,320.7z M516.9,352.7c-3.7,13.3-10.7,24.2-20.9,32.9c-11.4,9.5-24.9,14.3-40.7,14.3
		c-15.2,0-25.6-4.1-31.4-12.5c-5-7.2-5.9-16.2-2.9-27c4.6-16.2,12.3-28.4,23.1-36.7c10.3-7.9,23.2-11.8,38.7-11.8
		c15.2,0,25.6,4.4,31.4,13.2C519,332.6,519.9,341.8,516.9,352.7z"/>
	<path class="st0" d="M597.3,385.2c0.5-1.7,0.9-3.3,1.3-5C598.2,381.8,597.8,383.5,597.3,385.2z"/>
	<path class="st0" d="M598.6,345.9c-0.4-1.7-0.8-3.4-1.3-5C597.8,342.5,598.2,344.2,598.6,345.9z"/>
	<g>
		<path class="st0" d="M503.8,233.1l40.1-64.3L526,157.6l-42.7,68.3c-6.4-2-13-3.9-19.8-5.6l45.3-72.5L491,136.6l-49.3,78.9
			c-6.8-1.3-13.7-2.4-20.8-3.3l54-86.4L457,114.6l-59.4,95.1c-10.7-0.8-21.6-1.2-32.6-1.2c-141.1,0-255.5,68.7-255.5,153.5
			c0,54.3,47,102.1,117.8,129.3L186,557.5l17.9,11.2l43.9-70.2c6.3,2,12.8,3.8,19.5,5.4L219.7,580l17.9,11.2l51.6-82.5
			c6.9,1.3,14,2.4,21.2,3.3l-55.2,88.4l17.9,11.2l60.7-97.2c10.3,0.8,20.7,1.1,31.3,1.1c141.1,0,255.5-68.7,255.5-153.5
			C620.5,308,574,260.4,503.8,233.1z M597.3,385.2c-0.9,2.9-1.9,5.8-3.1,8.7c-0.3,0.8-0.6,1.5-1,2.3c-5.3,12-13.5,23.3-24.1,33.8
			c-0.5,0.5-1,0.9-1.4,1.4c-2.9,2.8-6,5.5-9.2,8.2c-1.6,1.3-3.3,2.6-5,3.9c-0.6,0.4-1.1,0.9-1.7,1.3c-1.1,0.8-2.3,1.7-3.5,2.5
			c0,0,0,0,0,0c-1.2,0.8-2.4,1.7-3.6,2.5c0,0,0,0,0,0c-1.2,0.8-2.4,1.6-3.7,2.4c-10.9,7-23.1,13.4-36.4,18.9
			c-0.9,0.4-1.8,0.8-2.7,1.1c-5.7,2.3-11.6,4.5-17.7,6.6c-0.5,0.2-1.1,0.4-1.7,0.5c-1.5,0.5-3,1-4.5,1.4c-2.7,0.9-5.4,1.7-8.2,2.5
			c-1.1,0.3-2.2,0.6-3.3,0.9c-1.5,0.4-3,0.8-4.5,1.2c-0.5,0.1-0.9,0.2-1.4,0.3c-1.3,0.3-2.6,0.7-4,1c-2.2,0.5-4.4,1-6.6,1.5
			c-1.4,0.3-2.8,0.6-4.2,0.9c-1.1,0.2-2.2,0.5-3.3,0.7c-0.6,0.1-1.1,0.2-1.7,0.3c-2.3,0.5-4.7,0.9-7.1,1.3c-1.5,0.3-3.1,0.5-4.6,0.8
			c-1.1,0.2-2.2,0.3-3.3,0.5c-1.8,0.3-3.5,0.5-5.3,0.8c-0.3,0-0.5,0.1-0.8,0.1c-1.7,0.2-3.3,0.5-5,0.7c-3.1,0.4-6.2,0.7-9.3,1.1
			c-1.8,0.2-3.5,0.3-5.3,0.5c-0.2,0-0.3,0-0.5,0c-1.9,0.2-3.8,0.3-5.7,0.5c-4.9,0.4-9.9,0.6-14.9,0.8c-2,0.1-4,0.1-6,0.2
			c-3,0.1-6.1,0.1-9.1,0.1s-6.1,0-9.1-0.1c-2,0-4-0.1-6-0.2c-5-0.2-10-0.4-14.9-0.8c-1.9-0.1-3.8-0.3-5.7-0.5c-0.2,0-0.3,0-0.5,0
			c-1.8-0.2-3.5-0.3-5.3-0.5c-3.1-0.3-6.2-0.7-9.3-1.1c-1.7-0.2-3.3-0.4-5-0.7c-0.3,0-0.5-0.1-0.8-0.1c-1.8-0.2-3.5-0.5-5.3-0.8
			c-1.1-0.2-2.2-0.3-3.3-0.5c-1.5-0.3-3.1-0.5-4.6-0.8c-2.4-0.4-4.7-0.9-7.1-1.3c-0.6-0.1-1.1-0.2-1.7-0.3c-1.1-0.2-2.2-0.4-3.3-0.7
			c-1.4-0.3-2.8-0.6-4.2-0.9c-2.2-0.5-4.4-1-6.6-1.5c-1.3-0.3-2.6-0.7-4-1c-0.5-0.1-0.9-0.2-1.4-0.3c-1.5-0.4-3-0.8-4.5-1.2
			c-1.1-0.3-2.2-0.6-3.3-0.9c-2.8-0.8-5.5-1.6-8.2-2.5c-1.5-0.5-3-0.9-4.5-1.4c-0.5-0.2-1.1-0.4-1.7-0.5c-6.1-2-12-4.2-17.7-6.6
			c-0.9-0.4-1.8-0.7-2.7-1.1c-13.3-5.6-25.5-11.9-36.4-18.9c-1.3-0.8-2.5-1.6-3.7-2.4c0,0,0,0,0,0c-1.2-0.8-2.4-1.6-3.6-2.5
			c0,0,0,0,0,0c-1.2-0.8-2.4-1.7-3.5-2.5c-0.6-0.4-1.2-0.9-1.7-1.3c-1.7-1.3-3.4-2.6-5-3.9c-3.3-2.7-6.3-5.4-9.2-8.2
			c-0.5-0.5-1-0.9-1.4-1.4c-10.6-10.5-18.8-21.8-24.1-33.8c-0.3-0.8-0.7-1.5-1-2.3c-1.2-2.9-2.2-5.8-3.1-8.7c-0.5-1.7-0.9-3.3-1.3-5
			c-1.3-5.6-1.9-11.3-1.9-17.1s0.7-11.5,1.9-17.1c0.4-1.7,0.8-3.4,1.3-5c0.9-2.9,1.9-5.8,3.1-8.7c0.3-0.8,0.6-1.5,1-2.3
			c5.3-12,13.5-23.3,24.1-33.8c0.5-0.5,1-0.9,1.4-1.4c2.9-2.8,6-5.5,9.2-8.2c1.6-1.3,3.3-2.6,5-3.9c0.6-0.4,1.1-0.9,1.7-1.3
			c1.1-0.8,2.3-1.7,3.5-2.5c0,0,0,0,0,0c1.2-0.8,2.4-1.7,3.6-2.5c0,0,0,0,0,0c1.2-0.8,2.4-1.6,3.7-2.4c10.9-7,23.1-13.4,36.4-18.9
			c0.9-0.4,1.8-0.8,2.7-1.1c5.7-2.3,11.6-4.5,17.7-6.6c0.5-0.2,1.1-0.4,1.7-0.5c1.5-0.5,3-1,4.5-1.4c2.7-0.9,5.4-1.7,8.2-2.5
			c1.1-0.3,2.2-0.6,3.3-0.9c1.5-0.4,3-0.8,4.5-1.2c0.5-0.1,0.9-0.2,1.4-0.3c1.3-0.3,2.6-0.7,4-1c2.2-0.5,4.4-1,6.6-1.5
			c1.4-0.3,2.8-0.6,4.2-0.9c1.1-0.2,2.2-0.5,3.3-0.7c0.6-0.1,1.1-0.2,1.7-0.3c2.3-0.5,4.7-0.9,7.1-1.3c1.5-0.3,3.1-0.5,4.6-0.8
			c1.1-0.2,2.2-0.3,3.3-0.5c1.8-0.3,3.5-0.5,5.3-0.8c0.3,0,0.5-0.1,0.8-0.1c1.7-0.2,3.3-0.5,5-0.7c3.1-0.4,6.2-0.7,9.3-1.1
			c1.8-0.2,3.5-0.3,5.3-0.5c0.2,0,0.3,0,0.5,0c1.9-0.2,3.8-0.3,5.7-0.5c4.9-0.4,9.9-0.6,14.9-0.8c2-0.1,4-0.1,6-0.2
			c3-0.1,6.1-0.1,9.1-0.1s6.1,0,9.1,0.1c2,0,4,0.1,6,0.2c5,0.2,10,0.4,14.9,0.8c1.9,0.1,3.8,0.3,5.7,0.5c0.2,0,0.3,0,0.5,0
			c1.8,0.2,3.5,0.3,5.3,0.5c3.1,0.3,6.2,0.7,9.3,1.1c1.7,0.2,3.3,0.4,5,0.7c0.3,0,0.5,0.1,0.8,0.1c1.8,0.2,3.5,0.5,5.3,0.8
			c1.1,0.2,2.2,0.3,3.3,0.5c1.5,0.3,3.1,0.5,4.6,0.8c2.4,0.4,4.7,0.9,7.1,1.3c0.6,0.1,1.1,0.2,1.7,0.3c1.1,0.2,2.2,0.4,3.3,0.7
			c1.4,0.3,2.8,0.6,4.2,0.9c2.2,0.5,4.4,1,6.6,1.5c1.3,0.3,2.6,0.7,4,1c0.5,0.1,0.9,0.2,1.4,0.3c1.5,0.4,3,0.8,4.5,1.2
			c1.1,0.3,2.2,0.6,3.3,0.9c2.8,0.8,5.5,1.6,8.2,2.5c1.5,0.5,3,0.9,4.5,1.4c0.5,0.2,1.1,0.4,1.7,0.5c6.1,2,12,4.2,17.7,6.6
			c0.9,0.4,1.8,0.7,2.7,1.1c13.3,5.6,25.5,11.9,36.4,18.9c1.3,0.8,2.5,1.6,3.7,2.4c0,0,0,0,0,0c1.2,0.8,2.4,1.6,3.6,2.5c0,0,0,0,0,0
			c1.2,0.8,2.4,1.7,3.5,2.5c0.6,0.4,1.2,0.9,1.7,1.3c1.7,1.3,3.4,2.6,5,3.9c3.3,2.7,6.3,5.4,9.2,8.2c0.5,0.5,1,0.9,1.4,1.4
			c10.6,10.5,18.8,21.8,24.1,33.8c0.3,0.8,0.7,1.5,1,2.3c1.2,2.9,2.2,5.8,3.1,8.7c0.5,1.7,0.9,3.3,1.3,5c1.3,5.6,1.9,11.3,1.9,17.1
			s-0.7,11.5-1.9,17.1C598.2,381.8,597.8,383.5,597.3,385.2z"/>
	</g>
	<g>
		<path class="st0" d="M289.5,310.3c-6.3-3.1-15.8-4.6-28.4-4.6h-56L177,406.3h50c14.5,0,27.1-2.3,37.9-6.8
			c12.5-5.3,20-12.6,22.7-22.2c2.3-8.2-0.5-14.5-8.4-18.8c-5.6-3-13.6-4.9-23.8-5.6l0.4-1.3c10.4-0.9,19.4-3.4,26.8-7.2
			c8.4-4.3,13.6-9.8,15.4-16.4C300.3,320,297.4,314,289.5,310.3z M253.7,378.5c-1.7,5.9-5.6,10.6-11.9,14.1
			c-6.2,3.5-12.6,5.2-19.1,5.2h-10.8l11.2-40.1c12.3,0,20.9,1.4,25.6,4.4C254.2,365.3,255.8,370.8,253.7,378.5z M265,330.2
			c-0.9,3-2.4,5.9-4.7,8.5c-2.2,2.7-5.2,4.9-8.9,6.8c-2.8,1.4-5.7,2.4-8.7,2.9c-2.9,0.5-6.5,0.7-10.5,0.7h-6.7l9.7-34.7
			c4-0.4,7.8-0.6,11.2-0.6c7.3,0,12.6,1.5,15.9,4.3C265.5,321,266.5,325,265,330.2z"/>
		<path class="st0" d="M372.7,305.7L344.5,407c-2.5,0-4.5-0.1-6-0.1c-6.1-0.4-9.5-0.6-10-0.6c-2.5,0-5.7,0.1-9.6,0.4
			c-4.1,0.2-6.4,0.3-7,0.3l28.3-101.4c2.5,0,5.6,0.1,9.4,0.4c3.8,0.2,6,0.4,6.6,0.4c2.5,0,4.5,0,6.1-0.1
			C368.6,305.9,372.1,305.7,372.7,305.7z"/>
		<path class="st0" d="M545.1,320.7c-10.9-11.8-30.3-17.7-58.4-17.7c-26.5,0-49,5.2-67.5,15.5c-17.7,9.8-28.6,22.3-32.9,37.6
			c-4.6,16.6-1,29.6,11,38.8c12,9.3,30.2,13.9,54.6,13.9c25.9,0,48.2-5.3,67.1-15.8c17.9-10,29-22.5,33.2-37.5
			C556,341.8,553.6,330.2,545.1,320.7z M516.9,352.7c-3.7,13.3-10.7,24.2-20.9,32.9c-11.4,9.5-24.9,14.3-40.7,14.3
			c-15.2,0-25.6-4.1-31.4-12.5c-5-7.2-5.9-16.2-2.9-27c4.6-16.2,12.3-28.4,23.1-36.7c10.3-7.9,23.2-11.8,38.7-11.8
			c15.2,0,25.6,4.4,31.4,13.2C519,332.6,519.9,341.8,516.9,352.7z"/>
	</g>
</g>
</svg>
